<?xml version="1.0" encoding="UTF-8" standalone="no"?>
<!-- Created with Inkscape (http://www.inkscape.org/) -->

<svg
   width="600"
   height="126.00001"
   viewBox="0 0 158.75 33.337502"
   version="1.1"
   id="svg1"
   inkscape:export-filename="fujilinux-logo.svg"
   inkscape:export-xdpi="96"
   inkscape:export-ydpi="96"
   inkscape:version="1.3.2 (091e20ef0f, 2023-11-25, custom)"
   sodipodi:docname="fuji.svg"
   xmlns:inkscape="http://www.inkscape.org/namespaces/inkscape"
   xmlns:sodipodi="http://sodipodi.sourceforge.net/DTD/sodipodi-0.dtd"
   xmlns="http://www.w3.org/2000/svg"
   xmlns:svg="http://www.w3.org/2000/svg">
  <sodipodi:namedview
     id="namedview1"
     pagecolor="#000000"
     bordercolor="#000000"
     borderopacity="0.25"
     inkscape:showpageshadow="2"
     inkscape:pageopacity="0.0"
     inkscape:pagecheckerboard="0"
     inkscape:deskcolor="#d1d1d1"
     inkscape:document-units="mm"
     inkscape:zoom="3.3109765"
     inkscape:cx="246.90601"
     inkscape:cy="59.34805"
     inkscape:window-width="1643"
     inkscape:window-height="933"
     inkscape:window-x="26"
     inkscape:window-y="23"
     inkscape:window-maximized="0"
     inkscape:current-layer="layer1" />
  <defs
     id="defs1" />
  <g
     inkscape:label="Layer 1"
     inkscape:groupmode="layer"
     id="layer1">
    <path
       d="m 35.191134,20.693827 c -0.481969,-1.156899 -3.749244,-6.445772 -5.590252,-7.269413 -4.353038,0.360632 -4.84503,-0.392785 -7.813581,-3.5144276 0.01457,-0.00113 -1.67e-4,0.0053 -0.451652,0.9027876 -2.138959,4.251928 -5.220705,10.334476 -11.6752567,21.931994 5.0730607,-2.928767 9.0029017,-4.748982 12.6705447,-5.423441 0.02395,-0.0044 2.353702,-0.848239 6.814054,0.02429 3.625151,0.709143 7.515746,2.510011 12.520166,5.399153 -0.986776,-1.816722 -1.867765,-3.453959 -2.708879,-5.013647 L 37.83645,25.654248 c -0.989321,-1.841942 -1.850723,-3.459265 -2.645316,-4.960421 z"
       style="fill:#a32530;fill-opacity:1;fill-rule:evenodd;stroke-width:0.192617"
       id="path4"
       sodipodi:nodetypes="cccscsscccc" />
    <path
       d="m 25.668695,0.76411904 c -0.0023,-1.698e-4 -0.0049,-0.00362 -0.0072,-0.00362 -0.0096,0 -1.424239,3.56634836 -2.51254,6.07818196 C 22.685693,7.9369555 17.25722,17.79044 16.83058,18.702013 22.361914,12.36289 30.104018,20.118678 34.755928,18.914674 28.686421,7.4481028 28.257546,6.8399824 25.668695,0.76411904 Z"
       style="fill:#ffffff;fill-rule:evenodd;stroke-width:0.192617"
       id="path3"
       sodipodi:nodetypes="cscccc" />
    <text
       xml:space="preserve"
       style="font-style:normal;font-variant:normal;font-weight:normal;font-stretch:normal;font-size:28.2222px;font-family:Karat;-inkscape-font-specification:Karat;fill:#ffffff;fill-opacity:1;stroke:none;stroke-width:0.264999;stroke-linecap:round;stroke-linejoin:round;stroke-opacity:1"
       x="40.796757"
       y="24.992748"
       id="text1-3"><tspan
         sodipodi:role="line"
         id="tspan1-6"
         style="font-style:normal;font-variant:normal;font-weight:normal;font-stretch:normal;font-size:28.2222px;font-family:Mate;-inkscape-font-specification:Mate;fill:#ffffff;fill-opacity:1;stroke:none;stroke-width:0.265001;stroke-opacity:1"
         x="40.796757"
         y="24.992748">fuji</tspan></text>
    <text
       xml:space="preserve"
       style="font-style:normal;font-variant:normal;font-weight:normal;font-stretch:normal;font-size:28.2223px;font-family:Mate;-inkscape-font-specification:Mate;fill:#a32530;fill-opacity:1;stroke:none;stroke-width:0.264999;stroke-linecap:round;stroke-linejoin:round"
       x="83.35775"
       y="25.239687"
       id="text2"><tspan
         sodipodi:role="line"
         id="tspan2"
         style="fill:#a32530;fill-opacity:1;stroke:none;stroke-width:0.265001"
         x="83.35775"
         y="25.239687">linux</tspan></text>
  </g>
</svg>
